<?xml version="1.0" standalone="no"?>
<!DOCTYPE svg PUBLIC "-//W3C//DTD SVG 20010904//EN"
 "http://www.w3.org/TR/2001/REC-SVG-20010904/DTD/svg10.dtd">
<svg version="1.0" xmlns="http://www.w3.org/2000/svg"
 width="700.000000pt" height="700.000000pt" viewBox="0 0 700.000000 700.000000"
 preserveAspectRatio="xMidYMid meet">
<metadata>
Created by potrace 1.11, written by Peter Selinger 2001-2013
</metadata>
<g transform="translate(0.000000,700.000000) scale(0.100000,-0.100000)"
fill="#000000" stroke="none">
<path d="M2477 6834 c-1 -1 -99 -4 -217 -8 -118 -4 -231 -9 -250 -10 -19 -2
-84 -7 -145 -11 -60 -3 -128 -8 -150 -10 -22 -2 -69 -7 -105 -10 -343 -33
-723 -189 -909 -373 -97 -96 -227 -317 -312 -530 -33 -80 -96 -285 -105 -337
-2 -16 -9 -55 -15 -85 -15 -78 -20 -283 -8 -360 10 -70 223 -724 295 -907 83
-210 204 -446 326 -634 120 -184 233 -366 255 -409 17 -33 19 -46 10 -52 -11
-8 -247 -1 -292 8 -11 3 -69 7 -130 10 -138 7 -150 0 -146 -84 0 -13 15 -37
32 -53 44 -41 86 -180 144 -481 10 -50 52 -186 87 -282 46 -125 208 -465 230
-484 12 -9 26 -6 74 16 32 16 147 59 254 97 226 80 346 143 505 268 82 64 130
111 190 187 62 78 108 105 160 97 88 -14 376 -185 428 -253 14 -19 14 -23 0
-43 -35 -51 -218 -141 -408 -201 -38 -12 -95 -33 -125 -47 -60 -28 -230 -93
-325 -125 -33 -11 -79 -28 -102 -39 -24 -10 -45 -19 -48 -19 -2 0 -62 -27
-132 -61 -70 -34 -170 -81 -221 -105 -73 -35 -305 -184 -332 -214 -3 -3 -49
-38 -103 -78 -54 -41 -106 -80 -115 -87 -10 -8 -82 -64 -162 -126 -163 -125
-194 -156 -221 -215 -25 -54 -53 -223 -51 -304 3 -115 25 -245 42 -245 18 1
143 14 185 20 44 6 202 24 260 30 67 7 293 7 330 0 17 -3 68 -12 115 -21 47
-8 126 -23 175 -34 50 -10 129 -21 177 -25 49 -3 97 -8 108 -10 10 -2 68 -7
127 -10 59 -4 128 -8 153 -10 76 -7 333 -7 375 0 83 13 120 28 149 59 17 18
46 49 64 68 63 68 253 117 407 104 140 -12 174 -28 216 -106 17 -32 41 -62 55
-69 65 -29 139 1 211 86 117 140 170 171 280 164 13 0 37 -13 54 -29 27 -24
32 -37 42 -110 13 -100 32 -124 100 -124 75 0 118 30 161 111 62 119 154 221
252 282 37 22 108 30 132 15 25 -16 60 -106 79 -206 20 -107 157 -185 343
-194 80 -4 135 16 224 83 43 33 95 66 115 72 39 13 215 16 326 6 39 -4 122
-16 185 -28 148 -27 174 -23 246 36 181 147 425 189 762 130 20 -3 49 25 37
37 -3 2 -5 45 -6 94 -1 68 -6 102 -24 147 -57 139 -70 218 -69 427 0 107 5
220 12 250 6 30 14 73 17 95 3 22 7 47 10 55 2 8 6 26 9 40 2 14 13 69 25 122
12 54 23 121 26 150 30 344 24 378 -74 475 -101 100 -222 138 -426 137 -151
-2 -226 -15 -494 -88 -74 -20 -177 -44 -230 -53 -96 -17 -333 -24 -346 -11
-20 20 14 70 197 289 20 24 73 89 118 144 44 55 87 107 93 115 87 106 392 513
424 565 77 124 142 266 158 342 11 50 5 142 -11 189 -8 25 -33 74 -54 109 -52
84 -64 149 -54 288 15 200 9 217 -109 318 -112 96 -111 93 -46 279 38 110 44
135 44 210 0 89 -10 119 -57 170 -37 41 -76 64 -178 104 -52 21 -107 49 -121
63 -33 30 -39 57 -45 203 -6 148 -18 207 -53 262 -47 74 -120 95 -268 76 -181
-24 -190 -19 -238 127 -10 28 -19 64 -21 80 -20 136 -42 187 -92 212 -39 19
-41 19 -362 9 -80 -2 -170 0 -200 5 -30 5 -70 11 -88 14 -18 3 -72 18 -121 34
-48 16 -135 39 -192 50 -57 12 -115 24 -129 26 -157 34 -606 100 -815 121 -33
3 -73 8 -90 10 -52 6 -463 22 -468 18z m2345 -462 c71 -35 117 -137 94 -209
-10 -31 -24 -29 -119 18 -171 87 -250 151 -228 187 23 38 177 40 253 4z
m-1264 -278 c7 -8 16 -28 18 -46 5 -32 0 -75 -36 -266 -13 -71 -4 -192 19
-254 35 -91 112 -182 201 -236 39 -23 55 -27 125 -26 44 0 116 3 159 6 119 9
127 4 141 -97 7 -46 28 -72 74 -92 32 -14 133 -18 196 -8 67 10 143 6 185 -11
56 -22 74 -33 185 -115 110 -81 164 -110 220 -114 53 -4 77 17 81 73 3 55 -24
108 -92 178 -97 99 -191 166 -340 242 -100 51 -199 80 -294 86 -61 3 -77 8
-92 26 -10 12 -16 25 -14 29 3 4 8 38 11 77 9 92 -5 143 -51 184 -45 39 -64
46 -138 53 -91 9 -138 50 -115 101 17 36 98 54 165 37 117 -30 285 -122 457
-253 193 -146 445 -405 554 -568 83 -125 183 -408 208 -590 4 -24 8 -47 10
-50 2 -3 6 -26 10 -50 3 -25 8 -56 10 -70 10 -68 15 -110 20 -160 3 -30 8 -71
10 -90 6 -50 19 -256 30 -475 4 -66 8 -145 10 -175 2 -30 7 -116 10 -191 l7
-135 -86 -110 c-48 -60 -92 -116 -99 -124 -7 -8 -28 -35 -47 -60 -79 -102
-249 -278 -370 -381 -41 -35 -93 -80 -115 -101 -148 -135 -322 -254 -421 -289
-62 -22 -180 -29 -264 -17 -64 10 -197 27 -250 33 -25 3 -56 8 -70 10 -14 3
-47 7 -75 10 -377 44 -840 227 -1135 448 -83 62 -192 176 -221 232 -25 46 -53
152 -63 235 -9 74 -15 127 -21 185 -3 33 -17 103 -30 156 -39 155 -46 245 -30
404 29 300 215 793 343 912 42 40 170 93 317 133 101 28 104 28 254 39 151 11
177 25 174 90 -2 53 -65 174 -116 223 -82 81 -191 60 -399 -74 -129 -84 -137
-88 -181 -104 -26 -9 -44 -11 -50 -5 -15 15 -10 70 10 121 26 65 136 252 180
305 5 6 37 48 73 95 198 263 481 549 610 615 70 36 101 36 138 -1z m1869 -186
c30 -31 32 -68 9 -156 -17 -61 -41 -102 -60 -102 -14 0 -49 25 -102 73 -39 35
-84 116 -79 142 2 11 4 23 4 28 1 4 16 16 34 28 26 16 45 19 100 17 57 -3 71
-8 94 -30z m329 -583 c94 -46 119 -107 78 -194 -37 -81 -148 -241 -158 -230
-2 2 -7 36 -11 74 -9 90 -37 172 -90 260 -54 91 -58 102 -37 114 32 19 160 4
218 -24z m166 -705 c39 -19 60 -67 48 -112 -37 -134 -144 -110 -142 32 0 96
22 115 94 80z m117 -621 c56 -56 42 -151 -48 -321 -25 -48 -46 -86 -48 -85 -1
1 -5 34 -8 72 -4 39 -9 86 -11 105 -5 54 -5 182 0 209 13 60 66 69 115 20z
m-920 -1744 c22 -21 18 -132 -6 -186 -23 -51 -39 -67 -89 -84 -36 -12 -104 -5
-227 25 l-49 12 29 31 c178 197 284 259 342 202z m-1803 -370 c34 -8 90 -17
125 -21 88 -9 95 -17 60 -68 -39 -56 -102 -114 -126 -117 -41 -5 -81 22 -152
105 -29 32 -43 58 -43 77 0 42 34 48 136 24z m880 -97 c12 -12 10 -20 -10 -58
-28 -53 -80 -116 -106 -130 -27 -14 -69 24 -110 101 -49 93 -33 106 128 103
57 -1 88 -6 98 -16z"/>
<path d="M4520 4911 c-133 -47 -257 -267 -251 -444 1 -40 79 -111 139 -128 26
-6 54 -14 62 -16 8 -2 67 -4 130 -4 103 1 162 4 240 16 14 2 49 7 79 10 76 9
178 42 201 65 37 37 47 137 17 167 -7 6 -46 31 -87 54 -85 48 -171 105 -215
144 -16 15 -41 36 -55 48 -105 92 -178 117 -260 88z"/>
<path d="M3987 4695 c-56 -56 90 -440 272 -713 96 -145 116 -189 108 -238 -13
-77 -83 -109 -242 -109 -177 1 -327 49 -417 136 -56 54 -97 72 -135 58 -56
-19 -113 -139 -113 -235 0 -57 30 -91 122 -137 109 -55 203 -78 322 -81 237
-7 505 99 597 234 83 123 62 207 -131 514 -101 161 -162 271 -223 407 -72 157
-119 206 -160 164z"/>
<path d="M2763 4664 c-174 -71 -310 -237 -393 -479 -41 -118 -44 -142 -26
-170 37 -57 199 -68 283 -19 134 76 150 81 308 89 195 10 339 31 389 57 48 25
65 48 56 80 -21 70 -117 205 -211 294 -167 156 -282 198 -406 148z"/>
<path d="M3798 4548 c-25 -21 -35 -67 -32 -153 5 -183 62 -359 127 -395 26
-14 29 -14 41 3 20 26 12 125 -29 338 -27 137 -38 175 -62 201 -19 21 -24 22
-45 6z"/>
<path d="M4504 3347 c-96 -47 -140 -63 -194 -72 -19 -3 -46 -7 -60 -10 -81
-14 -254 -24 -544 -30 -215 -5 -313 -10 -361 -19 -11 -2 -39 -7 -61 -10 -57
-10 -105 -52 -106 -93 -3 -89 157 -237 402 -373 328 -183 435 -202 585 -104
88 57 198 177 261 284 54 92 145 180 226 218 91 42 99 60 63 141 -29 64 -73
111 -104 111 -10 0 -58 -20 -107 -43z"/>
</g>
</svg>
