<?xml version="1.0" encoding="UTF-8" standalone="no"?>
<svg
   xmlns:dc="http://purl.org/dc/elements/1.1/"
   xmlns:cc="http://creativecommons.org/ns#"
   xmlns:rdf="http://www.w3.org/1999/02/22-rdf-syntax-ns#"
   xmlns:svg="http://www.w3.org/2000/svg"
   xmlns="http://www.w3.org/2000/svg"
   xmlns:sodipodi="http://sodipodi.sourceforge.net/DTD/sodipodi-0.dtd"
   xmlns:inkscape="http://www.inkscape.org/namespaces/inkscape"
   version="1.0"
   width="132pt"
   height="132pt"
   viewBox="0 0 132 132.00001"
   preserveAspectRatio="xMidYMid meet"
   id="svg2"
   inkscape:version="0.91 r13725"
   sodipodi:docname="selka.svg">
  <defs
     id="defs20" />
  <sodipodi:namedview
     pagecolor="#ffffff"
     bordercolor="#666666"
     borderopacity="1"
     objecttolerance="10"
     gridtolerance="10"
     guidetolerance="10"
     inkscape:pageopacity="0"
     inkscape:pageshadow="2"
     inkscape:window-width="1199"
     inkscape:window-height="789"
     id="namedview18"
     showgrid="false"
     fit-margin-top="4"
     fit-margin-left="4"
     fit-margin-right="4"
     fit-margin-bottom="4"
     inkscape:zoom="1.9831081"
     inkscape:cx="45.212182"
     inkscape:cy="43.843821"
     inkscape:window-x="0"
     inkscape:window-y="0"
     inkscape:window-maximized="0"
     inkscape:current-layer="svg2" />
  <metadata
     id="metadata4">
Created by potrace 1.11, written by Peter Selinger 2001-2013
<rdf:RDF>
  <cc:Work
     rdf:about="">
    <dc:format>image/svg+xml</dc:format>
    <dc:type
       rdf:resource="http://purl.org/dc/dcmitype/StillImage" />
    <dc:title></dc:title>
  </cc:Work>
</rdf:RDF>
</metadata>
  <path
     style="fill:#000000;stroke:none"
     d="M 60.302734 3.9179688 C 56.965889 3.8861047 53.627419 3.9870813 50.302734 4.203125 C 42.621889 4.7022375 34.620722 4.679044 27.439453 7.4492188 C 22.551077 9.3349186 17.369873 11.929585 14.425781 16.263672 C 8.1553658 25.494558 3.5644535 39.69922 7.1894531 48.949219 C 7.8144531 50.574219 9.5644533 55.699219 11.064453 60.574219 C 13.939453 69.324218 17.314454 76.19922 23.814453 85.824219 C 25.689453 88.699218 27.314453 91.324219 27.314453 91.824219 C 27.314453 92.324219 24.189453 92.199219 20.439453 91.824219 C 14.564454 91.074219 13.564453 91.199219 13.564453 92.949219 C 13.564453 94.074219 14.064453 94.949219 14.564453 94.949219 C 15.189453 94.949219 16.314453 98.449219 17.064453 102.69922 C 17.814453 107.07422 19.689453 113.07422 21.189453 116.19922 C 22.689453 119.32422 24.439453 122.69922 24.939453 123.94922 C 25.02791 124.12613 25.237826 124.2933 25.494141 124.45508 C 26.7942 123.79908 27.893694 123.29547 28.617188 123.05273 C 31.997917 121.9185 34.95923 120.8474 37.5625 119.91797 C 38.502836 119.3388 39.581481 118.70365 40.939453 117.94922 C 44.189453 116.07422 47.939453 112.94922 49.189453 111.07422 C 51.689453 107.44922 52.564454 107.44922 59.564453 111.57422 C 61.689453 112.82422 63.564453 114.44922 63.564453 114.94922 C 63.564453 116.42015 57.793015 119.062 51.527344 120.92773 C 48.133096 122.79399 41.565912 124.50487 38.417969 126.08398 C 35.779036 127.40776 32.478645 128.98273 28.998047 130.5918 C 24.596258 133.52732 17.157843 139.14951 12.564453 142.82422 C 8.0644538 146.19922 9.0109493 146.93751 7.8144531 153.19922 L 8.6015625 159.55078 C 25.273829 157.41367 24.733981 157.64603 35.953125 159.94922 C 60.893498 162.47052 58.888672 160.34961 61.013672 157.97461 C 63.638672 154.84961 74.814453 154.32422 75.689453 157.44922 C 76.564453 160.94922 80.314453 160.57422 82.814453 156.82422 C 85.689453 152.44922 91.064453 152.44922 91.064453 156.82422 C 91.064453 159.07422 91.689453 159.94922 93.564453 159.94922 C 94.939453 159.94922 96.564453 158.94922 96.939453 157.82422 C 98.314453 154.19922 102.68945 149.94922 105.06445 149.94922 C 106.68945 149.94922 107.43945 151.19922 108.06445 154.94922 C 108.81445 159.07422 114.6914 159.76367 117.19141 159.76367 C 121.92864 159.18768 121.48743 155.76593 126.25 155.67773 C 137 155.42773 139.38867 158.38477 141.38867 156.25977 C 143.76367 153.50977 150.18945 151.32422 156.18945 152.07422 L 160.81445 152.69922 L 160.68945 147.32422 C 155.42888 136.70588 160.73045 122.72769 160.81445 119.82422 C 161.17935 112.00957 162.69512 110.6695 157.72266 106.73438 C 152.01333 103.50257 146.74146 104.62415 141.16797 105.83203 C 132.54297 108.70703 123.06445 109.57422 123.68945 107.82422 C 123.93945 107.07422 126.31445 104.07422 128.93945 101.07422 C 131.56445 98.074219 136.68945 91.449218 140.43945 86.449219 C 147.81445 76.69922 149.06445 71.574218 145.43945 66.699219 C 144.31445 65.199219 143.93945 62.699218 144.43945 59.824219 C 144.93945 55.949219 144.56445 54.949219 142.06445 52.949219 C 139.06445 50.699219 139.06445 50.449218 140.68945 46.324219 C 143.18945 40.324219 141.93945 36.699219 136.68945 34.949219 C 132.56445 33.574219 132.31445 33.199218 132.31445 28.074219 C 132.31445 21.574219 130.18946 19.574219 124.56445 20.574219 C 120.43945 21.324219 120.18945 21.199218 118.68945 16.199219 C 118.68945 16.199219 118.51938 12.062369 117.06445 10.949219 C 114.93072 9.3167189 109.00977 10.664062 109.00977 10.664062 C 104.52802 10.50865 104.02591 10.663162 99.583984 9.6875 C 96.208985 7.9375002 80.167088 5.3634343 70.291016 4.4277344 C 66.974172 4.1134844 63.639579 3.9498328 60.302734 3.9179688 z M 110.81445 14.074219 C 111.93945 14.074219 113.68945 14.574219 114.56445 15.324219 C 115.31445 15.949219 116.06445 17.574219 116.06445 18.699219 C 116.06445 20.824219 115.68945 20.824219 111.18945 18.324219 C 106.43945 15.699219 106.31445 14.199219 110.81445 14.074219 z M 82.480469 20.626953 C 82.649597 20.62532 82.802734 20.648438 82.939453 20.699219 C 84.439453 21.324219 84.689453 22.449219 84.064453 25.449219 C 82.564453 31.699218 83.064453 34.949219 86.189453 38.324219 C 88.689453 40.824219 90.064453 41.324219 93.939453 40.824219 C 97.814453 40.324219 98.564453 40.574219 98.564453 42.449219 C 98.564453 45.199218 100.56445 46.074219 105.56445 45.324219 C 108.31445 44.824219 110.31445 45.574219 113.18945 47.949219 C 118.06445 52.074218 121.43945 52.199218 120.81445 48.324219 C 120.31445 44.699219 109.56445 37.449219 104.56445 37.449219 C 101.31445 37.449219 100.81445 37.074219 101.43945 34.699219 C 102.31445 31.449219 100.43945 28.699219 97.189453 28.699219 C 94.189453 28.699219 92.939453 26.324219 95.439453 25.449219 C 99.939453 23.699219 113.43945 33.19922 121.31445 43.699219 C 125.68946 49.574218 128.18945 60.19922 128.93945 77.324219 L 129.68945 91.574219 L 125.68945 96.699219 C 120.56445 103.07422 120.68945 103.07422 111.56445 110.94922 C 104.81445 116.69922 102.25526 117.32437 98.71875 117.37305 C 94.029773 116.8111 93.927104 116.64226 88.189453 115.94922 C 75.064454 114.82422 57.814453 106.07422 54.814453 98.824219 C 53.470965 94.632559 53.618846 89.032312 52.939453 87.199219 C 51.564453 82.949219 51.439453 79.949218 52.189453 74.824219 C 53.939453 64.57422 58.662773 55.793024 60.597656 54.714844 C 62.905807 53.428666 68.099026 51.354417 72.814453 51.199219 C 78.189453 51.199219 78.814453 50.324218 76.564453 46.074219 C 74.314453 41.574219 71.564453 41.449219 65.439453 45.574219 C 62.939453 47.449219 60.439453 48.574219 60.064453 48.199219 C 57.03711 45.171875 77.237488 20.677567 82.480469 20.626953 z M 125.43945 24.949219 C 127.31445 24.949219 128.56445 25.699219 128.56445 26.699219 C 128.56445 27.699219 128.18945 29.449219 127.81445 30.574219 C 127.06445 32.324219 126.81446 32.324219 124.68945 30.449219 C 121.31445 27.449219 121.68945 24.949219 125.43945 24.949219 z M 132.68945 38.699219 C 134.31445 38.699219 136.43945 39.574219 137.31445 40.574219 C 138.56445 42.074219 138.31445 43.199219 136.18945 46.449219 C 133.81445 50.199218 133.56445 50.324218 133.56445 47.699219 C 133.56445 46.199219 132.68945 43.449219 131.56445 41.824219 C 129.56445 38.824219 129.56445 38.699219 132.68945 38.699219 z M 138.31641 55.597656 C 138.55664 55.589844 138.8457 55.667969 139.18945 55.824219 C 140.31445 56.199219 141.06445 57.324219 140.81445 58.449219 C 140.18945 61.824218 137.31445 61.699218 137.31445 58.199219 C 137.31445 56.417969 137.5957 55.621094 138.31641 55.597656 z M 140.81445 69.949219 C 141.68945 69.949219 142.68945 70.699219 143.06445 71.699219 C 143.43945 72.699219 142.93945 75.074219 141.93945 76.949219 L 140.06445 80.449219 L 139.56445 75.199219 C 139.31445 71.449219 139.56445 69.949219 140.81445 69.949219 z M 119.61328 111.30469 C 120.51498 111.34613 121.06445 112.01172 121.06445 113.32422 C 121.06445 117.44922 119.06445 119.07422 115.43945 118.19922 L 111.93945 117.32422 L 114.81445 114.19922 C 116.71289 112.23047 118.45395 111.2514 119.61328 111.30469 z M 76.064453 120.17773 C 76.491363 120.17545 77.033203 120.26172 77.689453 120.44922 C 79.189453 120.82422 81.189453 121.19922 82.189453 121.19922 C 83.564453 121.19922 83.439453 121.82422 81.689453 123.69922 C 79.564453 126.07422 79.314453 126.07422 77.064453 124.19922 C 74.525391 121.86328 74.214508 120.18765 76.064453 120.17773 z M 96.064453 122.44922 C 99.564453 122.44922 99.689453 122.69922 98.314453 124.94922 C 97.439453 126.32422 96.314453 127.44922 95.814453 127.44922 C 95.314453 127.44922 94.314453 126.32422 93.564453 124.94922 C 92.314453 122.69922 92.564453 122.44922 96.064453 122.44922 z "
     transform="matrix(0.80000008,0,0,0.80000008,-6.1035162e-6,0)"
     id="path8" />
  <path
     style="fill:#000000;stroke:none"
     sodipodi:nodetypes="cscccccscc"
     inkscape:connector-curvature="0"
     id="path10"
     d="m 78.1117,46.330551 c -0.667373,-1.666314 -1.959534,-3.970763 -2.959534,-2.970763 -1.1,1.1 1.9,9 5,13.3 2.5,3.6 2.8,4.5 1.7,5.8 -1.7,2.1 -9.8,1 -12,-1.6 -1.8,-2.2 -3.6,-1.4 -4.5,2.1 -0.5,2.2 -0.1,2.8 2.8,4.2 6.7,3.2 17.7,-0.4 17.7,-5.9 0,-1.4 -1.930297,-4.719068 -3,-6.3 -3.580325,-5.635951 -3.838229,-6.596772 -4.740466,-8.629237 z" />
  <path
     style="fill:#000000;stroke:none"
     inkscape:connector-curvature="0"
     id="path12"
     d="m 70.952166,48.659788 c 0.1,4.1 1.3,7.6 2.7,8.1 1.1,0.3 1.1,-1.3 -0.4,-8.6 -0.6,-3.1 -2.4,-2.7 -2.3,0.5 z" />
  <path
     style="fill:#000000;stroke:none"
     sodipodi:nodetypes="ccsccccc"
     inkscape:connector-curvature="0"
     id="path14"
     d="m 83.852166,69.459788 c -1.7,0.9 -5.6,1.4 -11.7,1.5 -9.8,0 -12.3,0.5 -12.3,2.4 0,1.7 3.7,5 7.9,7.1 6.422015,3.64377 9.390624,5.062819 15.1,-2.5 1.1,-2.3 3.2,-4.5 4.6,-5 2.1,-0.8 2.3,-1.3 1.4,-3 -1.3,-2.4 -1.7,-2.4 -5,-0.5 z" />
  <path
     style="fill:#000000;fill-opacity:1;stroke:none;stroke-width:0.40000001;stroke-miterlimit:4;stroke-dasharray:1.6, 1.6;stroke-dashoffset:0;stroke-opacity:1"
     d="m 63.58156,53.294105 c -0.796424,1.422558 -7.468258,1.691243 -10.514194,1.779662 -2.6789,0.507889 -3.242563,2.048004 -5.373238,2.205305 -1.530627,0.113002 -3.77523,-0.287879 -3.77523,-1.677881 2.149784,-9.045331 7.483814,-12.164632 10.277017,-11.954897 4.080333,-0.02326 10.908541,8.650295 9.385645,9.647811 z"
     id="path3348"
     inkscape:connector-curvature="0"
     sodipodi:nodetypes="ccsccc" />
  <path
     sodipodi:nodetypes="cccsccc"
     inkscape:connector-curvature="0"
     id="path4151"
     d="m 80.581664,48.308079 c 0.685191,1.088872 2.134732,2.211403 5.180664,2.299822 5.014701,0.06297 10.791028,-0.956081 10.983188,-1.952319 0.48462,-0.595025 0.88925,-2.701377 -0.19128,-3.229702 -1.43641,-0.702332 -2.02375,-1.174642 -3.40184,-1.96079 -3.055422,-1.970499 -3.902316,-4.02622 -6.590651,-4.340822 -4.080331,-0.02326 -6.798532,6.814473 -5.980081,9.183811 z"
     style="fill:#000000;fill-opacity:1;stroke:none;stroke-width:0.40000001;stroke-miterlimit:4;stroke-dasharray:1.6, 1.6;stroke-dashoffset:0;stroke-opacity:1" />
</svg>
